<svg width="193" height="51" viewBox="0 0 193 51" fill="none" xmlns="http://www.w3.org/2000/svg">
<path d="M24.637 0.0202598C25.5757 0.141819 26.5352 0.222858 27.4738 0.425456C36.2554 2.2691 42.0959 7.39483 45.1413 15.5393C45.5585 16.6738 45.7462 17.8894 45.9965 19.0847C46.1217 19.7128 45.9965 19.8343 45.3291 19.8343C43.3892 19.8343 41.4493 19.9559 39.5094 19.8141C35.1291 19.4697 30.9156 18.4769 27.0567 16.3091C24.5953 14.9112 22.0922 14.8707 19.61 16.3091C17.0027 17.8084 15.3757 19.9154 15.3965 22.9746C15.3965 23.5216 15.5217 24.1092 15.7303 24.5954C16.7941 27.0874 18.4211 29.0728 21.1953 29.9035C23.4064 30.5518 25.4922 30.0858 27.453 29.0526C30.3732 27.5128 33.4395 26.3985 36.7352 26.0541C39.3426 25.7705 41.9916 25.6894 44.6199 25.5881C45.7045 25.5476 46.0383 25.9731 45.9548 27.0468C45.6419 30.6328 44.161 33.7326 41.8039 36.4676C38.383 40.4386 34.2113 43.3357 28.9548 44.6121C24.0947 45.7871 19.2346 45.8479 14.583 43.8625C7.8039 40.9451 2.86034 36.2043 0.920462 29.1741C-2.62555 16.2281 4.44562 5.08521 15.7511 1.31689C17.7953 0.628054 19.9229 0.243118 22.0922 0.101299C22.2383 0.101299 22.3843 0.0405196 22.5511 0H24.6579L24.637 0.0202598Z" fill="url(#paint0_linear_2129_855)"/>
<path d="M192.78 37.7034C192.593 38.3315 192.155 38.5543 191.487 38.5543C189.61 38.5341 187.753 38.5341 185.897 38.5341C184.937 38.5341 184.791 38.3112 184.75 37.3792C184.729 36.4473 184.604 35.5356 184.499 34.6037C184.499 34.4821 184.312 34.2795 184.228 34.2795C184.061 34.2795 183.874 34.3808 183.748 34.5024C183.269 35.0088 182.872 35.5964 182.351 36.0826C180.661 37.6224 178.596 38.3922 176.344 38.7569C172.589 39.385 168.98 38.9595 165.497 37.44C163.077 36.3865 161.346 34.6037 160.011 32.4359C156.236 26.3174 156.09 20.0166 159.51 13.7766C161.847 9.54228 165.872 7.39474 170.691 6.62487C173.84 6.11837 176.948 6.40201 179.91 7.73916C181.225 8.34695 182.351 9.1776 183.352 10.1906C183.519 10.3527 183.728 10.4742 183.936 10.5958C183.978 10.5755 184.04 10.535 184.103 10.5148C184.166 9.76514 184.27 9.01552 184.27 8.26591C184.27 7.29344 184.458 7.1111 185.459 7.1111H191.633C192.217 7.1111 192.613 7.25292 192.78 7.8202V13.9184C192.759 14.0805 192.697 14.2426 192.697 14.4046V34.2592C192.697 34.4213 192.759 34.5834 192.78 34.7455V37.7034ZM184.02 22.8327H183.936C183.894 22.2047 183.874 21.5766 183.79 20.9688C183.331 17.2815 181.496 14.6477 177.72 13.4929C173.173 12.1153 168.647 14.1007 166.978 18.2945C165.977 20.8067 165.977 23.4202 166.54 26.0338C166.853 27.5127 167.499 28.8701 168.605 29.9642C171.066 32.3953 174.028 32.8816 177.324 32.0914C180.536 31.3216 182.559 29.3564 183.436 26.2971C183.748 25.1828 183.832 24.0078 184.02 22.853V22.8327Z" fill="black"/>
<path d="M104.922 30.0452C105.36 29.0322 105.861 28.0192 106.257 26.986C108.218 21.6779 110.178 16.3698 112.118 11.0617C112.535 9.94746 112.953 8.83317 113.349 7.71888C113.495 7.33395 113.724 7.13135 114.142 7.13135C116.853 7.13135 119.565 7.13135 122.256 7.15161C122.297 7.15161 122.36 7.15161 122.485 7.19213C122.423 7.39472 122.36 7.57706 122.277 7.7594C118.793 16.1672 115.289 24.5953 111.805 33.0031C110.616 35.8395 109.49 38.6961 108.259 41.5325C107.321 43.7206 106.027 45.706 104.296 47.4078C101.981 49.6769 99.1023 50.6697 95.89 50.933C93.6998 51.1154 91.5722 50.933 89.4863 50.2847C88.7771 50.0619 88.7354 50.0011 88.9649 49.3123C89.5072 47.5902 90.0495 45.8884 90.5919 44.1663C90.8213 43.4167 91.0299 43.2951 91.8225 43.518C93.7624 44.0447 95.6814 44.065 97.5587 43.2343C99.7489 42.2618 100.792 39.7294 99.8949 37.5413C96.0152 28.2826 92.1354 19.0036 88.2557 9.74486C88.0262 9.17759 87.755 8.63057 87.5256 8.0633C87.2127 7.35421 87.3379 7.13135 88.1305 7.13135H95.8274C98.3931 7.13135 96.6826 7.25291 96.9121 7.90122C98.6642 12.8041 100.416 17.7272 102.148 22.6301C102.982 24.96 103.796 27.3101 104.63 29.64C104.672 29.7616 104.734 29.8831 104.776 30.0249C104.818 30.0249 104.859 30.0452 104.922 30.0654V30.0452Z" fill="black"/>
<path d="M132.644 11.4264C133.019 11.0212 133.415 10.616 133.77 10.1905C135.689 7.9417 138.234 6.82741 141.175 6.54377C143.407 6.34117 145.639 6.40195 147.808 7.13131C151.938 8.52923 154.733 12.3178 154.754 16.5521C154.796 23.5012 154.817 30.4706 154.837 37.44C154.837 38.453 154.754 38.534 153.711 38.534H147.328C146.41 38.534 146.181 38.3314 146.181 37.4197C146.181 34.9075 146.244 32.4155 146.244 29.9033C146.244 26.5605 146.244 23.2379 146.16 19.895C146.16 18.9428 145.972 17.9703 145.722 17.0384C145.055 14.5869 143.49 13.4321 140.883 13.3308C136.711 13.1687 133.707 15.8835 133.457 19.9355C133.102 25.5272 133.353 31.1392 133.332 36.7511C133.332 37.0956 133.332 37.4197 133.311 37.7641C133.29 38.3314 133.144 38.4732 132.539 38.4935C131.851 38.5137 131.142 38.4935 130.453 38.4935H125.593C123.987 38.4935 124.509 38.3517 124.509 37.44V8.28612C124.509 7.25287 124.613 7.15157 125.656 7.13131H131.475C132.185 7.13131 132.352 7.27313 132.393 7.9417C132.456 9.09651 132.518 10.2311 132.581 11.3859C132.623 11.3859 132.664 11.4264 132.706 11.4264H132.644Z" fill="black"/>
<path d="M74.9903 39.0608C71.8615 38.9392 68.8161 38.534 66.021 37.0551C61.7658 34.8062 59.1584 31.3621 58.1155 26.7631C57.0099 21.921 57.74 17.3625 60.4934 13.1688C62.475 10.1501 65.4369 8.32667 68.8786 7.23265C73.7179 5.6929 78.432 6.17914 82.9793 8.24564C85.7118 9.48148 87.5474 11.7101 89.0701 14.1615C89.2995 14.5262 89.1952 14.8503 88.7989 15.0327C86.8381 15.9444 84.8983 16.8561 82.9375 17.7475C82.4161 17.9906 82.124 17.6867 81.8946 17.2815C81.3314 16.2888 80.6013 15.4176 79.6418 14.7693C76.7842 12.8041 73.7596 12.7028 70.6725 14.121C69.1498 14.8098 68.1903 16.0862 67.6062 17.5854C66.4799 20.5028 66.2713 23.481 67.1891 26.4997C68.1277 29.5792 70.297 31.281 73.551 31.7875C76.6173 32.2535 79.2872 31.4026 81.5817 29.4374C81.8529 29.1943 82.124 28.9512 82.3743 28.708C82.7289 28.3839 83.1044 28.3636 83.5007 28.6675C85.1486 29.9439 86.7756 31.2 88.4234 32.4561C88.7572 32.7195 88.778 32.9626 88.5069 33.2665C85.9204 36.2244 82.7081 38.1896 78.724 38.7772C77.4934 38.9595 76.2627 38.9595 75.032 39.0608H74.9903Z" fill="black"/>
<defs>
<linearGradient id="paint0_linear_2129_855" x1="0.000585102" y1="22.7193" x2="46.0403" y2="22.7193" gradientUnits="userSpaceOnUse">
<stop stop-color="#302082"/>
<stop offset="1" stop-color="#7C00FF"/>
</linearGradient>
</defs>
</svg>
